<?xml version="1.0" encoding="UTF-8"?>
<svg xmlns="http://www.w3.org/2000/svg" width="728" height="90" viewBox="0 0 728 90">
  <rect width="728" height="90" fill="#fffdf8"/>
  <rect width="728" height="90" fill="none" stroke="#ded6c8" stroke-width="2"/>
  
  <g transform="translate(14 10) scale(0.14)">
    <path d="M256 76c54 38 102 91 102 168v104H154V244c0-77 48-130 102-168Z" fill="#f7f3ec" stroke="#176b5b" stroke-width="24" stroke-linejoin="round"/>
    <path d="M256 145c32 25 58 59 58 107v96H198v-96c0-48 26-82 58-107Z" fill="#176b5b"/>
    <path d="M256 191c17 16 31 38 31 68v89h-62v-89c0-30 14-52 31-68Z" fill="#fffdf8"/>
    <path d="M96 368c58-16 112-7 160 26 48-33 102-42 160-26v38c-58-14-112-5-160 28-48-33-102-42-160-28v-38Z" fill="#fffdf8" stroke="#176b5b" stroke-width="22" stroke-linejoin="round"/>
    <path d="M256 394v40" stroke="#c89b3c" stroke-width="18" stroke-linecap="round"/>
    <circle cx="256" cy="57" r="15" fill="#c89b3c"/>
    <circle cx="128" cy="150" r="12" fill="#c89b3c"/>
    <circle cx="384" cy="150" r="12" fill="#c89b3c"/>
  </g>
  <text x="98" y="40" fill="#18201b" font-family="Inter, Arial, sans-serif" font-size="24" font-weight="800">Islamic lectures. No ads. No distractions.</text>
  <text x="98" y="70" fill="#68726b" font-family="Inter, Arial, sans-serif" font-size="16" font-weight="700">Complete series from trusted speakers — free, forever.</text>
  <rect x="512" y="24" width="200" height="42" rx="8" fill="#176b5b"/>
  <text x="612" y="51" text-anchor="middle" fill="#fffdf8" font-family="Inter, Arial, sans-serif" font-size="17" font-weight="900">improvingmuslim.com</text>
</svg>