<?xml version="1.0" encoding="UTF-8"?>
<svg xmlns="http://www.w3.org/2000/svg" width="1080" height="1080" viewBox="0 0 1080 1080">
  <rect width="1080" height="1080" fill="#fffdf8"/>
  <circle cx="962" cy="168" r="72" fill="#f7f3ec" stroke="#ded6c8" stroke-width="2"/>
  <circle cx="86" cy="820" r="8" fill="#c89b3c"/><circle cx="117" cy="820" r="8" fill="#c89b3c"/><circle cx="148" cy="820" r="8" fill="#c89b3c"/>
  
  <g transform="translate(760 66) scale(0.38)">
    <path d="M256 76c54 38 102 91 102 168v104H154V244c0-77 48-130 102-168Z" fill="#f7f3ec" stroke="#176b5b" stroke-width="24" stroke-linejoin="round"/>
    <path d="M256 145c32 25 58 59 58 107v96H198v-96c0-48 26-82 58-107Z" fill="#176b5b"/>
    <path d="M256 191c17 16 31 38 31 68v89h-62v-89c0-30 14-52 31-68Z" fill="#fffdf8"/>
    <path d="M96 368c58-16 112-7 160 26 48-33 102-42 160-26v38c-58-14-112-5-160 28-48-33-102-42-160-28v-38Z" fill="#fffdf8" stroke="#176b5b" stroke-width="22" stroke-linejoin="round"/>
    <path d="M256 394v40" stroke="#c89b3c" stroke-width="18" stroke-linecap="round"/>
    <circle cx="256" cy="57" r="15" fill="#c89b3c"/>
    <circle cx="128" cy="150" r="12" fill="#c89b3c"/>
    <circle cx="384" cy="150" r="12" fill="#c89b3c"/>
  </g>
  
    <text x="84" y="112" fill="#176b5b" font-family="Inter, Arial, sans-serif" font-size="25" font-weight="900" letter-spacing="2.2">
      A CALMER WAY TO LEARN
    </text>
     
    <text x="84" y="370" fill="#18201b" font-family="Inter, Arial, sans-serif" font-size="92" font-weight="800" letter-spacing="0">
      <tspan x="84" dy="0">Islamic lectures</tspan><tspan x="84" dy="104">without the</tspan><tspan x="84" dy="104">noise.</tspan>
    </text>
     <rect x="84" y="695" width="350" height="8" rx="4" fill="#c89b3c"/>
     
    <text x="84" y="760" fill="#68726b" font-family="Inter, Arial, sans-serif" font-size="32" font-weight="800" letter-spacing="0">
      <tspan x="84" dy="0">No ads. No clutter. No endless scroll.</tspan>
    </text>
  
    <line x1="84" y1="942" x2="996" y2="942" stroke="#ded6c8" stroke-width="2"/>
    <text x="84" y="988" fill="#68726b" font-family="Inter, Arial, sans-serif" font-size="26" font-weight="800">Improving Muslim</text>
    <text x="996" y="988" text-anchor="end" fill="#68726b" font-family="Inter, Arial, sans-serif" font-size="24" font-weight="800">1/5</text>
</svg>